<?xml version="1.0" encoding="utf-8"?>
<svg xmlns="http://www.w3.org/2000/svg" xmlns:xlink="http://www.w3.org/1999/xlink" style="margin: auto; background: none; display: block; shape-rendering: auto;" width="200px" height="200px" viewBox="0 0 100 100" preserveAspectRatio="xMidYMid">
<g transform="translate(50 50)">
<g>
<animateTransform attributeName="transform" type="rotate" values="0;32.72727272727273" keyTimes="0;1" dur="2.127659574468085s" repeatCount="indefinite"></animateTransform><path d="M15.708278072405012 -33.5 L15.708278072405012 -33.5 L15.708278072405012 33.5 L15.708278072405012 33.5 A37 37 0 0 1 31.32611180786781 -19.689457051959682 L31.32611180786781 -19.689457051959682 L31.32611180786781 -19.689457051959682 L-4.89682296165723 36.67452964772945 L-4.89682296165723 36.67452964772945 A37 37 0 0 1 36.99812638406174 0.37234939102220266 L36.99812638406174 0.37234939102220266 L36.99812638406174 0.37234939102220266 L-23.947217304690994 28.20515526214859 L-23.947217304690994 28.20515526214859 A37 37 0 0 1 30.92349724958514 20.315937533249613 L30.92349724958514 20.315937533249613 L30.92349724958514 20.315937533249613 L-35.39453935643735 10.78084336893952 L-35.39453935643735 10.78084336893952 A37 37 0 0 1 15.03087623335588 33.80935905422547 L15.03087623335588 33.80935905422547 L15.03087623335588 33.80935905422547 L-35.604345248379424 -10.066310120108632 L-35.604345248379424 -10.066310120108632 A37 37 0 0 1 -5.633941783867397 36.56854796100049 L-5.633941783867397 36.56854796100049 L-5.633941783867397 36.56854796100049 L-24.510023092243184 -27.717481271170833 L-24.510023092243184 -27.717481271170833 A37 37 0 0 1 -24.510023092243173 27.71748127117084 L-24.510023092243173 27.71748127117084 L-24.510023092243173 27.71748127117084 L-5.633941783867407 -36.56854796100049 L-5.633941783867407 -36.56854796100049 A37 37 0 0 1 -35.604345248379424 10.06631012010864 L-35.604345248379424 10.06631012010864 L-35.604345248379424 10.06631012010864 L15.030876233355855 -33.809359054225474 L15.030876233355855 -33.809359054225474 A37 37 0 0 1 -35.394539356437356 -10.780843368939513 L-35.394539356437356 -10.780843368939513 L-35.394539356437356 -10.780843368939513 L30.923497249585132 -20.31593753324962 L30.923497249585132 -20.31593753324962 A37 37 0 0 1 -23.947217304691 -28.20515526214858 L-23.947217304691 -28.20515526214858 L-23.947217304691 -28.20515526214858 L36.99812638406174 -0.37234939102222 L36.99812638406174 -0.37234939102222 A37 37 0 0 1 -4.896822961657222 -36.67452964772945 L-4.896822961657222 -36.67452964772945 L-4.896822961657222 -36.67452964772945 L31.32611180786781 19.689457051959685 L31.32611180786781 19.689457051959685 A37 37 0 0 1 15.708278072405003 -33.5 M0 -20A20 20 0 1 0 0 20 A20 20 0 1 0 0 -20" fill="#9BD0F5"></path></g></g>
<!-- [ldio] generated by https://loading.io/ --></svg>